# xmcd
#
# Track frame offsets:
#	150
#	11202
#	23949
#	45708
#	57696
#	78897
#	94419
#	107758
#	120121
#	132961
#	142342
#	154022
#	164019
#	176895
#	188187
#	199055
#	211130
#	225279
#	241692
#	264180
#
# Disc length: 3681 seconds
#
# Revision: 0
# Processed by: cddbd v1.5.2PL0 Copyright (c) Steve Scherf et al.
# Submitted via: audiograbber 1.83.01
#
DISCID=130e5f14
DTITLE=Various Artist - 100 Hits - Country - CD5
DYEAR=2007
DGENRE=Country
TTITLE0=Jim Reeves - Welcome To My World
TTITLE1=Waylon Jennings - I'm A Ramblin' Man
TTITLE2=Merle Haggard - Pancho And Lefty
TTITLE3=Skeeter Davis - The End Of The World
TTITLE4=Marty Robbins - El Paso
TTITLE5=Melba Montgomery - No Charge
TTITLE6=Charlie Rich - Your Cheatin' Heart
TTITLE7=Eddy Arnold - I'll Hold You In My Heart (Till I Can Hold You In My Arms
TTITLE7=)
TTITLE8=Freddy Fender - Wasted Days And Wasted Nights
TTITLE9=Chet Atkins - Yakety Axe
TTITLE10=George Hamilton IV - She's A Little Bit Country
TTITLE11=Jerry Reed - Are You From Dixie (Cause I'm From Dixie Too)
TTITLE12=Hank Snow - I'm Movin' On
TTITLE13=Hank Locklin - Send Me The Pillow You Dream On
TTITLE14=Porter Wagoner - Green, Green Grass Of Home
TTITLE15=Willie Nelson - Shotgun Willie
TTITLE16=Tom Paxton - The Last Thing On My Mind
TTITLE17=Kris Kristofferson - The Silver Tongued Devil And I
TTITLE18=Vern Gosdin - The First Time Ever I Saw Your Face
TTITLE19=The Everly Brothers - I Walk The Line
EXTD=
EXTT0=
EXTT1=
EXTT2=
EXTT3=
EXTT4=
EXTT5=
EXTT6=
EXTT7=
EXTT8=
EXTT9=
EXTT10=
EXTT11=
EXTT12=
EXTT13=
EXTT14=
EXTT15=
EXTT16=
EXTT17=
EXTT18=
EXTT19=
PLAYORDER=
